# xmcd CD database file
#
# Track frame offsets:
#	183
#	15605
#	36883
#	66300
#	81930
#	105063
#	125710
#	146363
#
# Disc length: 2316 seconds
#
# Revision: 0
# Processed by: cddbd v1.5.2PL0 Copyright (c) Steve Scherf et al.
# Submitted via: CDex 1.70beta2
#
DISCID=63090a08
DTITLE=Larry Nozero - Kaleidoscopin'
DYEAR=1988
DGENRE=Jazz
TTITLE0=Slow Boat to China
TTITLE1=Kiel Bossa
TTITLE2=Rainbow
TTITLE3=Pick Yourself Up
TTITLE4=Hold'em Joe
TTITLE5=Jackie's Bag
TTITLE6=Down the Line
TTITLE7=Guys Like Us
EXTD=YEAR: 1988
EXTT0=
EXTT1=
EXTT2=
EXTT3=
EXTT4=
EXTT5=
EXTT6=
EXTT7=
PLAYORDER=
